<svg width="3049" height="501" xmlns="http://www.w3.org/2000/svg" xmlns:xlink="http://www.w3.org/1999/xlink" xml:space="preserve" overflow="hidden"><g transform="translate(-585 -928)"><g><g><g><path d="M262.5 87.5 262.5 262.5 87.5 262.5 87.5 87.5 262.5 87.5M269.792 80.2083 80.2083 80.2083 80.2083 269.792 269.792 269.792 269.792 80.2083Z" stroke="#68BCA0" stroke-width="7.14284" fill="#68BCA0" transform="matrix(1.00286 0 0 1 585 973)"/><path d="M151.302 218.436 110.443 177.578 115.598 172.422 151.302 208.126 234.402 125.027 239.557 130.182 151.302 218.436Z" stroke="#68BCA0" stroke-width="7.14284" fill="#68BCA0" transform="matrix(1.00286 0 0 1 585 973)"/></g></g></g><text font-family="Calibri,Calibri_MSFontService,sans-serif" font-weight="400" font-size="238" transform="matrix(1 0 0 1 952.733 1223)">Health and Safety </text><text font-family="Calibri,Calibri_MSFontService,sans-serif" font-weight="400" font-size="238" transform="matrix(1 0 0 1 2713.28 1223)">+</text><path d="M920.5 1001.5 920.5 1294.83" stroke="#000000" stroke-width="6.875" stroke-miterlimit="8" fill="none" fill-rule="evenodd"/></g></svg>