<svg xmlns="http://www.w3.org/2000/svg" viewBox="27.252 126.949 155.702 42.803" width="155.702" height="42.803">
  <path d="m27.252 165.828v-3.923l13.462-7.943c7.404-4.369 13.461-7.966 13.46-7.993-.001-.028-3.23-1.958-7.176-4.29l-7.173-4.237-.042 6.183-.043 6.184-3.365 1.836-3.366 1.835v-12.38c0-13.67-.029-12.93.532-13.568.149-.17.393-.36.544-.422.385-.161 1.136-.143 1.612.04.739.284 21.097 12.114 22.29 12.952 1.13.795 2.168 2.01 2.714 3.176.613 1.312.78 3.105.42 4.503-.465 1.799-1.697 3.413-3.474 4.55-.256.163-1.76 1.033-3.344 1.932-3.34 1.897-12.416 7.12-20.937 12.047-3.273 1.893-5.987 3.442-6.032 3.442-.052 0-.082-1.456-.082-3.924zm49.022-18.717v-13.341h4.356c4.709 0 5.52.052 7.099.463 3.36.873 5.878 2.922 7.39 6.014 1.525 3.118 1.942 6.785 1.167 10.277-.726 3.275-2.295 5.88-4.557 7.566-.833.621-2.461 1.425-3.475 1.716-1.873.538-2.202.565-7.302.61l-4.678.04zm8.206 8.626c1.762-.286 3.175-.947 4.29-2.005 1.64-1.558 2.405-3.667 2.405-6.628 0-1.91-.275-3.232-.973-4.666-1.093-2.25-3.169-3.634-6.012-4.01a11.94 11.94 0 0 0 -1.608-.072l-.847.027-.021 8.742-.022 8.742h.995c.548 0 1.354-.06 1.793-.13zm15.331-8.633v-13.335h13.801v4.656h-8.467v5.673h8.213v4.657h-8.213v7.027h8.467v4.657h-13.8zm18.288 0v-13.335h5.249l.021 5.462.022 5.462 4.064-5.46 4.064-5.46 3.249-.002c2.587-.002 3.232.02 3.167.103-.045.059-1.338 1.65-2.872 3.535-5.887 7.234-6.89 8.472-6.984 8.623-.085.135.595 1.07 5.211 7.16 2.92 3.853 5.33 7.06 5.355 7.126.04.103-.45.12-3.38.12h-3.428l-4.223-5.852-4.223-5.854-.022 5.854-.021 5.853h-5.248zm22.945 0v-13.335h4.255c4.715 0 5.287.045 6.707.515 3.28 1.088 5.09 4.001 4.932 7.942-.068 1.719-.359 2.824-1.056 4.013-.4.682-1.277 1.59-2.01 2.081-.606.405-1.766.943-2.034.943-.077 0-.127.034-.112.077.095.26 7.231 10.73 7.259 10.648.067-.2 5.32-14.116 7.134-18.896 1.025-2.7 2.029-5.253 2.232-5.672.428-.885.902-1.489 1.495-1.904.37-.259.497-.299 1.037-.326.658-.033.905.047 1.473.479.314.239.909 1.042 1.203 1.624.235.465 9.395 24.872 9.395 25.033 0 .095-.472.111-2.678.093l-2.678-.023-1.083-2.752-1.082-2.751-4.643-.021-4.642-.021-.795 2.222c-.438 1.222-.89 2.48-1.005 2.794l-.21.571-5.684-.002-5.684-.002-3.175-5.215-3.175-5.215-.021 5.218-.022 5.217h-5.333zm33.105 3.276c0-.037-.7-2.104-1.554-4.593l-1.589-4.636c-.031-.097-3.302 9.068-3.295 9.233.004.086 6.438.082 6.438-.004zm-25.086-4.656c.713-.226 1.183-.516 1.65-1.015 1.547-1.654 1.389-4.498-.321-5.79-.737-.555-1.478-.767-2.85-.814l-1.164-.04v7.92l1.08-.047c.727-.032 1.25-.101 1.605-.214z" fill="#008000" stroke-width=".265"/>
</svg>
